<svg width="25" height="24" viewBox="0 0 25 24" fill="none" xmlns="http://www.w3.org/2000/svg">
<path d="M8.2998 2.5H16.7002C19.6239 2.50011 21.9999 4.8761 22 7.7998V16.2002C21.9999 17.6058 21.4412 18.9534 20.4473 19.9473C19.4534 20.9412 18.1058 21.4999 16.7002 21.5H8.2998C5.3761 21.4999 3.00011 19.1239 3 16.2002V7.7998C3.00005 6.39423 3.55884 5.04663 4.55273 4.05273C5.54663 3.05884 6.89423 2.50005 8.2998 2.5ZM8.09961 3.5C7.01236 3.5001 5.96998 3.93236 5.20117 4.70117C4.43236 5.46998 4.0001 6.51236 4 7.59961V16.4004C4.00021 18.6662 5.83378 20.4998 8.09961 20.5H16.9004C17.9876 20.4999 19.03 20.0676 19.7988 19.2988C20.5676 18.53 20.9999 17.4876 21 16.4004V7.59961C20.9998 5.33378 19.1662 3.50021 16.9004 3.5H8.09961ZM12.5 7.5C13.6935 7.5 14.8377 7.97445 15.6816 8.81836C16.5256 9.66227 17 10.8065 17 12C17 13.1935 16.5256 14.3377 15.6816 15.1816C14.8377 16.0256 13.6935 16.5 12.5 16.5C11.3065 16.5 10.1623 16.0256 9.31836 15.1816C8.47445 14.3377 8 13.1935 8 12C8 10.8065 8.47445 9.66227 9.31836 8.81836C10.1623 7.97445 11.3065 7.5 12.5 7.5ZM12.5 8.5C11.5717 8.5 10.6818 8.86901 10.0254 9.52539C9.36901 10.1818 9 11.0717 9 12C9 12.9283 9.36901 13.8182 10.0254 14.4746C10.6818 15.131 11.5717 15.5 12.5 15.5C13.4283 15.5 14.3182 15.131 14.9746 14.4746C15.631 13.8182 16 12.9283 16 12C16 11.0717 15.631 10.1818 14.9746 9.52539C14.3182 8.86901 13.4283 8.5 12.5 8.5ZM17.75 6C17.9489 6 18.1396 6.07907 18.2803 6.21973C18.4209 6.36038 18.5 6.55109 18.5 6.75C18.5 6.94891 18.4209 7.13962 18.2803 7.28027C18.1396 7.42093 17.9489 7.5 17.75 7.5C17.5511 7.5 17.3604 7.42093 17.2197 7.28027C17.0791 7.13962 17 6.94891 17 6.75C17 6.55109 17.0791 6.36038 17.2197 6.21973C17.3604 6.07907 17.5511 6 17.75 6Z" fill="#F9F9F9" stroke="#EAEAEA"/>
</svg>
