<svg width="25" height="24" viewBox="0 0 25 24" fill="none" xmlns="http://www.w3.org/2000/svg">
<path d="M5.5 3.5H19.5C19.8978 3.5 20.2792 3.65815 20.5605 3.93945C20.8419 4.22076 21 4.60218 21 5V19C21 19.3978 20.8419 19.7792 20.5605 20.0605C20.2792 20.3419 19.8978 20.5 19.5 20.5H5.5C5.10218 20.5 4.72076 20.3419 4.43945 20.0605C4.15815 19.7792 4 19.3978 4 19V5C4 4.60218 4.15815 4.22076 4.43945 3.93945C4.72076 3.65815 5.10218 3.5 5.5 3.5ZM5.5 19H9.26953V9.62988H5.5V19ZM15.7402 9.44043C15.1307 9.44043 14.4731 9.65806 13.9199 10.0322V9.62988H10.1299V19H13.9199V13.5703C13.9199 13.0719 14.3206 12.6702 14.8096 12.6699C15.0482 12.6699 15.2775 12.7648 15.4463 12.9336C15.6151 13.1024 15.71 13.3316 15.71 13.5703V19H19.5V13.2002C19.5 12.203 19.1036 11.2462 18.3984 10.541C17.6934 9.8361 16.7372 9.44049 15.7402 9.44043ZM7.37988 4.69043C6.7991 4.69046 6.24173 4.92038 5.83105 5.33105C5.42038 5.74173 5.19046 6.2991 5.19043 6.87988C5.19043 8.08984 6.17767 9.05951 7.37988 9.05957C7.95805 9.05957 8.51305 8.8307 8.92188 8.42188C9.3307 8.01305 9.55957 7.45805 9.55957 6.87988C9.55951 5.67767 8.58984 4.69043 7.37988 4.69043Z" fill="#F9F9F9" stroke="#EAEAEA"/>
</svg>
