<svg width="25" height="24" viewBox="0 0 25 24" fill="none" xmlns="http://www.w3.org/2000/svg">
<path d="M15.5672 3.5C15.6698 4.47731 16.0707 5.40408 16.7234 6.14941V6.14844C17.4842 7.02599 18.3903 7.43835 19.0994 7.63086C19.3823 7.70765 19.6358 7.74927 19.8397 7.77246V9.87207C18.5787 9.78207 17.3639 9.34469 16.3318 8.60352L15.5399 8.03516V15.2998C15.5399 18.1741 13.2135 20.4998 10.3504 20.5C7.67461 20.5 5.15997 18.3322 5.15997 15.2998C5.16008 12.3258 7.66548 9.96496 10.6297 10.1172V12.2129C8.83837 12.0453 7.25969 13.4705 7.25958 15.2998C7.25958 17.0184 8.66653 18.4004 10.3602 18.4004C11.1611 18.4002 11.9304 18.0885 12.5067 17.5322C13.0829 16.976 13.4215 16.2183 13.45 15.418V3.5H15.5672Z" fill="#F9F9F9" stroke="#EAEAEA"/>
</svg>
