<svg width="25" height="24" viewBox="0 0 25 24" fill="none" xmlns="http://www.w3.org/2000/svg">
<path d="M8.62903 3.17896L13.1447 9.79712L13.4698 10.2737L13.8448 9.83423L19.5275 3.17896H19.9562L13.8781 10.2952L13.6583 10.551L13.8488 10.8303L20.6652 20.8215H16.3741L11.5978 13.8206L11.2726 13.344L10.8976 13.7834L4.88684 20.8215H4.45911L10.8644 13.3235L11.0841 13.0676L10.8937 12.7893L4.33801 3.17896H8.62903ZM5.29993 4.1936L10.965 12.3538L11.6769 13.3792L16.5245 20.3655L16.6564 20.5549H20.1691L19.6886 19.8625L13.7462 11.301L13.0343 10.2756L8.46399 3.69067L8.33215 3.50024H4.81946L5.29993 4.1936Z" fill="#F9F9F9" stroke="#EAEAEA" stroke-width="0.882138"/>
</svg>
